<svg id="Layer_1" data-name="Layer 1" xmlns="http://www.w3.org/2000/svg" xmlns:xlink="http://www.w3.org/1999/xlink" viewBox="0 0 126.82 49.8"><defs><style>.cls-1,.cls-8{fill:none;}.cls-2{clip-path:url(#clip-path);}.cls-3{fill:#fff;}.cls-4{clip-path:url(#clip-path-2);}.cls-5{fill:#5271ff;}.cls-6{clip-path:url(#clip-path-3);}.cls-7{fill:#5e17eb;}.cls-8{stroke:#fff;stroke-linecap:round;}</style><clipPath id="clip-path" transform="translate(-1.4 -1)"><rect class="cls-1" x="22" y="8.8" width="30.4" height="20.6"/></clipPath><clipPath id="clip-path-2" transform="translate(-1.4 -1)"><rect class="cls-1" x="1.4" y="0.9" width="49.9" height="49.9"/></clipPath><clipPath id="clip-path-3" transform="translate(-1.4 -1)"><rect class="cls-1" x="23.7" y="8.8" width="27" height="23"/></clipPath></defs><g class="cls-2"><path class="cls-3" d="M33.2,13.6c4.5,6.9,12.2,11.3,19,14.1a11,11,0,0,0,.2-1.8C52.4,16.5,41,8.8,26.9,8.8a36.36,36.36,0,0,0-4.8.3,9,9,0,0,1,3.8,3.3c4.4,6.5,0,16.7,20.5,17,1.2,0,2.4,0,3.7-.1-7.7-4.2-15.8-10.1-16.9-15.7" transform="translate(-1.4 -1)"/></g><g class="cls-4"><path class="cls-5" d="M1.4,25.3a25.5,25.5,0,0,0,49.9,7.4H23.4v6.7H39.3A18.78,18.78,0,1,1,23.7,6.8l.3-.1a1.42,1.42,0,0,1-.2-.6,10.5,10.5,0,0,0-3.1-4L19.2,1h0A25.45,25.45,0,0,0,1.4,25.3" transform="translate(-1.4 -1)"/></g><g class="cls-6"><path class="cls-7" d="M50.5,14.7c0-.6.2-1.4-.2-1.9l-2.2-.6V9.4c-.2-.6-.9-.4-1.4-.4a13.33,13.33,0,0,0-9.6,5.4A12.68,12.68,0,0,0,26.6,9l-.3.3c-.1,1,0,1.9-.1,2.9-.8.3-2.1.3-2.5,1.3a2.54,2.54,0,0,1,.2,1.2V29.4c-.1.4,0,1,.5.9a13.61,13.61,0,0,1,5.3-.7,13.56,13.56,0,0,1,7,2.3h.8a10.84,10.84,0,0,1,3.8-1.7,15.51,15.51,0,0,1,8.8.2c.6-.1.4-.8.4-1.2ZM24.9,29V13.8c.4-.2.9-.3,1.3-.5V25.4c-.1.7.9.6,1.3.7A12.21,12.21,0,0,1,35,29.6,15.22,15.22,0,0,0,24.9,29Zm13.9.8a13,13,0,0,1,5.5-3.5,13.32,13.32,0,0,1,3.4-.5c.4,0,.3-.5.3-.8V13.4c.5.1.9.3,1.4.4.1,5.1,0,10.1,0,15.2A15.53,15.53,0,0,0,38.8,29.8Z" transform="translate(-1.4 -1)"/></g><path d="M61.47,23.14h1.2v3.1a5.3,5.3,0,0,1-1.5.8,5.55,5.55,0,0,1-1.7.3,4.3,4.3,0,0,1-3.1-1.2,4.16,4.16,0,0,1-1.3-3,3.8,3.8,0,0,1,1.3-3,4.54,4.54,0,0,1,3.2-1.2,4.67,4.67,0,0,1,1.7.3,3.77,3.77,0,0,1,1.5.9l-.8,1a3.69,3.69,0,0,0-2.4-1,3.1,3.1,0,0,0-2.2.9,2.58,2.58,0,0,0-.9,2.1,2.72,2.72,0,0,0,.9,2.1,2.94,2.94,0,0,0,2.2.9,3.53,3.53,0,0,0,1.9-.6Z" transform="translate(-1.4 -1)"/><path d="M71,27.24l-1.5-2.5h-2.4v2.5h-1.4v-8.3h3.4a3.29,3.29,0,0,1,2.5.8,2.58,2.58,0,0,1,.9,2.1,3.1,3.1,0,0,1-.5,1.7,2.21,2.21,0,0,1-1.3,1l1.9,2.8H71Zm-3.9-3.8h2c1.3,0,2-.6,2-1.7s-.7-1.6-2-1.6h-2Z" transform="translate(-1.4 -1)"/><path d="M80.58,25.34h-4.2l-.8,1.9h-1.5l3.7-8.3h1.5l3.6,8.3h-1.5Zm-.5-1.2-1.6-3.7-1.6,3.7Z" transform="translate(-1.4 -1)"/><path d="M93.8,27.24H92.5V21l-2.6,5.4H89L86.4,21v6.2H85.1v-8.3h1.6l2.8,5.5,2.7-5.5h1.7v8.3Z" transform="translate(-1.4 -1)"/><path d="M105.79,27.24h-1.3V21l-2.6,5.4H101L98.39,21v6.2h-1.3v-8.3h1.6l2.8,5.5,2.7-5.5h1.7v8.3Z" transform="translate(-1.4 -1)"/><path d="M114.39,25.34h-4.2l-.8,1.9h-1.5l3.7-8.3h1.5l3.6,8.3h-1.5Zm-.6-1.2-1.6-3.7-1.5,3.7Z" transform="translate(-1.4 -1)"/><path d="M124,27.24l-1.5-2.5h-2.4v2.5h-1.4v-8.3h3.4a3.29,3.29,0,0,1,2.5.8,2.58,2.58,0,0,1,.9,2.1,3.1,3.1,0,0,1-.5,1.7,2.21,2.21,0,0,1-1.3,1l1.9,2.8H124Zm-3.9-3.8h2c1.3,0,2-.6,2-1.7s-.7-1.6-2-1.6h-2Z" transform="translate(-1.4 -1)"/><path d="M53.8,30h3a2.92,2.92,0,0,1,2.2.7,2.41,2.41,0,0,1,.8,1.9,2.63,2.63,0,0,1-.8,2,2.67,2.67,0,0,1-2.1.7H55.1v2.3H53.8Zm1.3,1.1v3h1.7q1.8,0,1.8-1.5t-1.8-1.5Z" transform="translate(-1.4 -1)"/><path d="M67,35.87h-3.8l-.7,1.7h-1.3l3.4-7.6h1.3l3.3,7.6h-1.4Zm-.5-1.2-1.4-3.4-1.4,3.4Z" transform="translate(-1.4 -1)"/><path d="M76.37,31.07H74v6.5h-1.3v-6.5h-2.4V30h6.1Z" transform="translate(-1.4 -1)"/><path d="M85,37.57h-1.3v-3.1h-4v3.1h-1.3V30h1.3v3.3h4V30H85Z" transform="translate(-1.4 -1)"/><path d="M90.5,29.87a5,5,0,0,1,2.7.8l-.5,1.1a4,4,0,0,0-2.2-.7,2,2,0,0,0-.9.2.75.75,0,0,0,0,1.2,2,2,0,0,0,.8.4c.3.1.6.2,1,.3a10.37,10.37,0,0,1,1,.4,1.78,1.78,0,0,1,.8.7,2,2,0,0,1,.3,1.1,1.94,1.94,0,0,1-.8,1.6,3.28,3.28,0,0,1-2.1.6,5.08,5.08,0,0,1-1.7-.3,4.19,4.19,0,0,1-1.4-.9l.3-1.1a5.67,5.67,0,0,0,1.3.8,3.08,3.08,0,0,0,1.3.3,2.51,2.51,0,0,0,1-.2,1,1,0,0,0,.4-.7.91.91,0,0,0-.3-.7,1.51,1.51,0,0,0-.8-.4c-.3-.1-.6-.2-1-.3a4.18,4.18,0,0,1-1-.4,2.41,2.41,0,0,1-.8-.6,2,2,0,0,1-.3-1.1,1.48,1.48,0,0,1,.8-1.5A3.48,3.48,0,0,1,90.5,29.87Z" transform="translate(-1.4 -1)"/><path d="M102.31,37.57H101v-3.1H97v3.1h-1.3V30H97v3.3h4V30h1.3Z" transform="translate(-1.4 -1)"/><path d="M110.19,35.87h-3.8l-.7,1.7h-1.3l3.4-7.6H109l3.3,7.6h-1.4Zm-.5-1.2-1.4-3.4-1.4,3.4Z" transform="translate(-1.4 -1)"/><path d="M115.54,36.37h3.3v1.2h-4.6V30h1.3Z" transform="translate(-1.4 -1)"/><path d="M126,35.87h-3.8l-.7,1.7h-1.3l3.4-7.6h1.3l3.3,7.6h-1.4Zm-.5-1.2-1.5-3.4-1.4,3.4Z" transform="translate(-1.4 -1)"/><path class="cls-8" d="M37.5,24.2v-8" transform="translate(-1.4 -1)"/></svg>